<svg width="435" height="453" viewBox="0 0 435 453" fill="none" xmlns="http://www.w3.org/2000/svg">
<path d="M20.834 143H166.667C201.186 143 229.167 115.018 229.167 80.5C229.167 45.9823 201.186 18 166.667 18C132.15 18 104.167 45.9823 104.167 80.5" stroke="black" stroke-width="35" stroke-linecap="round" stroke-linejoin="round"/>
<path d="M41.666 309.667H270.833C305.351 309.667 333.333 337.648 333.333 372.167C333.333 406.685 305.351 434.667 270.833 434.667C236.314 434.667 208.333 406.685 208.333 372.167" stroke="black" stroke-width="35" stroke-linecap="round" stroke-linejoin="round"/>
<path d="M0 226.333H354.167C388.685 226.333 416.667 198.352 416.667 163.833C416.667 129.316 388.685 101.333 354.167 101.333C319.648 101.333 291.667 129.316 291.667 163.833" stroke="black" stroke-width="35" stroke-linecap="round" stroke-linejoin="round"/>
</svg>
