<svg width="500" height="500" viewBox="0 0 500 500" fill="none" xmlns="http://www.w3.org/2000/svg">
<g clip-path="url(#clip0_441_2383)">
<path d="M93.75 328.125V312.5H62.5V328.125C62.5 357.133 74.0234 384.953 94.5352 405.465C115.047 425.977 142.867 437.5 171.875 437.5H218.75V406.25H171.875C151.155 406.25 131.284 398.019 116.632 383.368C101.981 368.716 93.75 348.845 93.75 328.125Z" fill="black"/>
<path d="M375 171.875V187.5H406.25V171.875C406.25 142.867 394.727 115.047 374.215 94.5352C353.703 74.0234 325.883 62.5 296.875 62.5H250V93.75H296.875C307.135 93.75 317.294 95.7708 326.772 99.6969C336.251 103.623 344.863 109.378 352.118 116.632C359.372 123.887 365.127 132.499 369.053 141.978C372.979 151.456 375 161.615 375 171.875Z" fill="black"/>
<path d="M171.875 171.875H78.125C65.693 171.875 53.7701 176.814 44.9794 185.604C36.1886 194.395 31.25 206.318 31.25 218.75V250H62.5V218.75C62.5 214.606 64.1462 210.632 67.0765 207.701C70.0067 204.771 73.981 203.125 78.125 203.125H171.875C176.019 203.125 179.993 204.771 182.924 207.701C185.854 210.632 187.5 214.606 187.5 218.75V250H218.75V218.75C218.75 206.318 213.811 194.395 205.021 185.604C196.23 176.814 184.307 171.875 171.875 171.875Z" fill="black"/>
<path d="M125 156.25C137.361 156.25 149.445 152.584 159.723 145.717C170.001 138.849 178.012 129.088 182.742 117.668C187.473 106.247 188.711 93.6807 186.299 81.5569C183.888 69.4331 177.935 58.2966 169.194 49.5559C160.453 40.8151 149.317 34.8625 137.193 32.4509C125.069 30.0394 112.503 31.2771 101.082 36.0076C89.6619 40.738 79.9007 48.7488 73.0331 59.0269C66.1656 69.305 62.5 81.3887 62.5 93.75C62.5 110.326 69.0848 126.223 80.8058 137.944C92.5268 149.665 108.424 156.25 125 156.25ZM125 62.5C131.181 62.5 137.223 64.3328 142.362 67.7666C147.501 71.2004 151.506 76.081 153.871 81.7912C156.236 87.5014 156.855 93.7847 155.65 99.8466C154.444 105.909 151.467 111.477 147.097 115.847C142.727 120.218 137.158 123.194 131.097 124.4C125.035 125.605 118.751 124.987 113.041 122.621C107.331 120.256 102.45 116.251 99.0166 111.112C95.5828 105.973 93.75 99.9307 93.75 93.75C93.75 85.462 97.0424 77.5134 102.903 71.6529C108.763 65.7924 116.712 62.5 125 62.5Z" fill="black"/>
<path d="M421.875 390.625H328.125C315.693 390.625 303.77 395.564 294.979 404.354C286.189 413.145 281.25 425.068 281.25 437.5V468.75H312.5V437.5C312.5 433.356 314.146 429.382 317.076 426.451C320.007 423.521 323.981 421.875 328.125 421.875H421.875C426.019 421.875 429.993 423.521 432.924 426.451C435.854 429.382 437.5 433.356 437.5 437.5V468.75H468.75V437.5C468.75 425.068 463.811 413.145 455.021 404.354C446.23 395.564 434.307 390.625 421.875 390.625Z" fill="black"/>
<path d="M312.5 312.5C312.5 324.861 316.166 336.945 323.033 347.223C329.901 357.501 339.662 365.512 351.082 370.242C362.503 374.973 375.069 376.211 387.193 373.799C399.317 371.388 410.453 365.435 419.194 356.694C427.935 347.953 433.888 336.817 436.299 324.693C438.711 312.569 437.473 300.003 432.742 288.582C428.012 277.162 420.001 267.401 409.723 260.533C399.445 253.666 387.361 250 375 250C358.424 250 342.527 256.585 330.806 268.306C319.085 280.027 312.5 295.924 312.5 312.5ZM406.25 312.5C406.25 318.681 404.417 324.723 400.983 329.862C397.55 335.001 392.669 339.006 386.959 341.371C381.249 343.736 374.965 344.355 368.903 343.15C362.842 341.944 357.273 338.967 352.903 334.597C348.533 330.227 345.556 324.658 344.35 318.597C343.145 312.535 343.764 306.251 346.129 300.541C348.494 294.831 352.499 289.95 357.638 286.517C362.777 283.083 368.819 281.25 375 281.25C383.288 281.25 391.237 284.542 397.097 290.403C402.958 296.263 406.25 304.212 406.25 312.5Z" fill="black"/>
</g>
<defs>
<clipPath id="clip0_441_2383">
<rect width="500" height="500" fill="white"/>
</clipPath>
</defs>
</svg>
