<svg width="500" height="500" viewBox="0 0 500 500" fill="none" xmlns="http://www.w3.org/2000/svg">
<path d="M250.019 84.0173C271.709 84.0173 289.293 65.2094 289.293 42.0086C289.293 18.8079 271.709 0 250.019 0C228.329 0 210.746 18.8079 210.746 42.0086C210.746 65.2094 228.329 84.0173 250.019 84.0173Z" fill="black"/>
<path d="M292.319 132.496C287.908 108.843 267.01 92.6044 244.344 95.8449C225.592 98.5059 211.285 113.703 207.758 132.496C219.588 123.129 234.227 117.571 250.038 117.571C265.85 117.571 280.466 123.141 292.319 132.496Z" fill="black"/>
<path d="M390.191 330.309C381.191 321.829 367.447 322.775 359.542 332.414L328.583 370.023C320.655 379.65 321.54 394.351 330.551 402.819C334.675 406.698 339.794 408.614 344.892 408.614C350.917 408.614 356.91 405.929 361.211 400.714L392.148 363.093C400.086 353.478 399.202 338.789 390.191 330.309Z" fill="black"/>
<path d="M361.196 111.633C353.258 102.006 339.536 101.06 330.547 109.54C321.547 118.02 320.652 132.709 328.579 142.336L359.538 179.956C363.839 185.172 369.832 187.845 375.868 187.845C380.966 187.845 386.074 185.941 390.209 182.062C399.209 173.582 400.105 158.893 392.166 149.266L361.196 111.633Z" fill="black"/>
<path d="M250.209 260.721C250.143 260.721 249.866 260.721 249.8 260.721C235.968 260.721 222.777 267.427 213.556 278.485C204.335 289.531 199.945 304.433 201.504 319.146L223.828 473.461C225.354 487.996 236.477 500 250.01 500C263.565 500 274.655 488.091 276.214 473.532L298.515 319.122C300.086 304.421 295.685 289.508 286.464 278.462C277.22 267.439 264.052 260.721 250.209 260.721Z" fill="black"/>
<path d="M249.989 247.605C276.429 247.605 297.864 224.678 297.864 196.395C297.864 168.113 276.429 145.186 249.989 145.186C223.548 145.186 202.113 168.113 202.113 196.395C202.113 224.678 223.548 247.605 249.989 247.605Z" fill="black"/>
<path d="M455.758 189.666C455.703 189.666 455.459 189.666 455.393 189.666C442.789 189.666 430.781 195.78 422.4 205.833C413.997 215.885 410.005 229.463 411.421 242.862L431.732 383.34C433.125 396.586 443.253 407.503 455.57 407.503C467.898 407.503 478.015 396.657 479.419 383.423L499.719 242.839C501.135 229.451 497.143 215.885 488.751 205.833C480.359 195.78 468.352 189.666 455.758 189.666Z" fill="black"/>
<path d="M455.566 177.721C479.637 177.721 499.151 156.848 499.151 131.1C499.151 105.352 479.637 84.4788 455.566 84.4788C431.494 84.4788 411.98 105.352 411.98 131.1C411.98 156.848 431.494 177.721 455.566 177.721Z" fill="black"/>
<path d="M109.801 330.309C118.812 321.829 132.544 322.775 140.461 332.414L171.408 370.023C179.336 379.65 178.452 394.351 169.451 402.819C165.327 406.698 160.208 408.614 155.111 408.614C149.085 408.614 143.092 405.929 138.791 400.714L107.855 363.093C99.916 353.478 100.778 338.789 109.801 330.309Z" fill="black"/>
<path d="M138.777 111.633C146.716 102.006 160.437 101.06 169.437 109.54C178.437 118.02 179.322 132.709 171.394 142.336L140.447 179.956C136.146 185.172 130.153 187.845 124.116 187.845C119.019 187.845 113.911 185.941 109.775 182.062C100.775 173.582 99.8907 158.893 107.818 149.266L138.777 111.633Z" fill="black"/>
<path d="M44.2414 189.666C44.2967 189.666 44.551 189.666 44.6174 189.666C57.2109 189.666 69.2185 195.78 77.6105 205.833C86.0135 215.885 90.005 229.463 88.5897 242.862L68.2676 383.34C66.8744 396.586 56.7465 407.503 44.4294 407.503C32.1012 407.503 21.9844 396.657 20.5802 383.423L0.280139 242.839C-1.13511 229.451 2.85634 215.885 11.2484 205.833C19.6404 195.78 31.6368 189.666 44.2414 189.666Z" fill="black"/>
<path d="M44.4448 177.721C68.5163 177.721 88.0301 156.848 88.0301 131.1C88.0301 105.352 68.5163 84.4788 44.4448 84.4788C20.3732 84.4788 0.859375 105.352 0.859375 131.1C0.859375 156.848 20.3732 177.721 44.4448 177.721Z" fill="black"/>
</svg>
