<svg width="470" height="500" viewBox="0 0 470 500" fill="none" xmlns="http://www.w3.org/2000/svg">
<path d="M83.3327 437.5H283.749C295.772 437.506 307.653 434.908 318.575 429.884C329.498 424.86 339.202 417.529 347.02 408.396L453.312 284.396C455.538 281.804 457.092 278.704 457.837 275.37C458.583 272.036 458.497 268.569 457.587 265.276C456.677 261.983 454.972 258.964 452.62 256.485C450.269 254.007 447.344 252.144 444.103 251.063L403.104 237.396C393.194 234.175 382.644 233.446 372.386 235.274C362.127 237.102 352.478 241.43 344.291 247.875L277.937 300.938L265.083 275.208C258.196 261.339 247.564 249.675 234.39 241.538C221.215 233.401 206.026 229.115 190.541 229.167H83.3327C60.3535 229.167 41.666 247.854 41.666 270.833V395.833C41.666 418.813 60.3535 437.5 83.3327 437.5ZM83.3327 270.833H190.541C206.437 270.833 220.708 279.646 227.812 293.854L237.124 312.5H145.833V354.167H271.124C274.33 354.124 277.481 353.34 280.333 351.875L280.395 351.854L280.479 351.813H280.541L280.583 351.792H280.666L280.687 351.771C280.874 351.833 280.749 351.75 280.749 351.75C280.958 351.75 280.791 351.729 280.791 351.729H280.812L280.853 351.708L280.916 351.688L280.958 351.667L280.999 351.646L281.062 351.625L281.104 351.604C281.166 351.604 281.124 351.583 281.145 351.583L281.208 351.542L281.249 351.521L281.291 351.5L281.354 351.479L281.395 351.458H281.416L281.458 351.438L281.52 351.417L281.562 351.396C281.749 351.375 281.624 351.375 281.624 351.375L281.666 351.354C282.469 350.87 283.235 350.327 283.958 349.729L370.333 280.625C375.791 276.292 383.312 274.938 389.916 277.146L401.52 281.021L315.416 381.5C311.455 385.997 306.584 389.601 301.124 392.072C295.665 394.543 289.742 395.825 283.749 395.833H83.3327V270.833ZM333.333 41.6667H332.978C329.583 41.7084 312.02 42.4792 291.666 56.3542C271.854 42.8542 254.708 41.7709 250.666 41.6875L250.041 41.6667H249.958C233.27 41.6667 217.562 48.1875 205.812 59.9584C194.02 71.7709 187.499 87.4584 187.499 104.167C187.499 120.875 194.02 136.563 205.437 148L276.562 222.708C278.519 224.74 280.866 226.355 283.462 227.458C286.058 228.561 288.85 229.128 291.67 229.126C294.491 229.125 297.282 228.553 299.877 227.447C302.472 226.34 304.816 224.722 306.77 222.688L377.52 148.354C389.333 136.563 395.833 120.875 395.833 104.167C395.833 87.4584 389.312 71.7709 377.541 59.9792C371.756 54.1572 364.874 49.5408 357.293 46.3974C349.711 43.254 341.582 41.6461 333.374 41.6667H333.333ZM354.166 104.167C354.166 109.729 351.999 114.958 347.687 119.271L291.666 178.125L235.27 118.896C231.333 114.958 229.166 109.729 229.166 104.167C229.166 98.6042 231.333 93.375 235.291 89.4167C239.058 85.5845 244.188 83.3978 249.562 83.3334C250.083 83.3542 260.02 84 271.791 93.4375C273.478 94.7917 275.187 96.3334 276.937 98.0625L291.666 112.792L306.395 98.0625C308.145 96.3334 309.854 94.7917 311.541 93.4375C322.562 84.5834 331.874 83.4792 333.458 83.3542C336.173 83.3537 338.862 83.891 341.368 84.9351C343.875 85.9793 346.15 87.5095 348.062 89.4375C351.999 93.375 354.166 98.6042 354.166 104.167Z" fill="black"/>
</svg>
