<svg width="500" height="500" viewBox="0 0 500 500" fill="none" xmlns="http://www.w3.org/2000/svg">
<path d="M249.66 82.4667C269.793 82.4667 286.184 64.9834 286.184 43.5084C286.184 22.0334 269.793 4.55005 249.66 4.55005C229.527 4.55005 213.137 22.0334 213.137 43.5084C213.137 64.9834 229.527 82.4667 249.66 82.4667ZM51.1914 82.4667C31.0586 82.4667 14.668 64.9834 14.668 43.5084C14.668 22.0334 31.0586 4.55005 51.1914 4.55005C71.3242 4.55005 87.7148 22.0334 87.7148 43.5084C87.7148 64.9834 71.3242 82.4667 51.1914 82.4667ZM448.809 82.4667C468.941 82.4667 485.332 64.9834 485.332 43.5084C485.332 22.0334 468.941 4.55005 448.809 4.55005C428.676 4.55005 412.285 22.0334 412.285 43.5084C412.285 64.9834 428.676 82.4667 448.809 82.4667ZM496.027 270.933C496.027 277.531 487.047 469.625 487.047 469.625C487.047 484.204 476.504 495.45 462.836 495.45C449.168 495.45 438.625 484.204 438.625 469.625C438.625 469.625 421.795 269.683 417.15 195.029L378.594 244.454C375.285 248.694 370.402 251.104 365.297 251.104C364.635 251.104 363.969 251.065 363.303 250.981C357.498 250.263 352.426 246.471 349.816 240.894L303.596 142.169V467.285C303.596 482.775 292.846 495.446 279.457 495.446C266.068 495.446 255.318 482.775 255.318 467.285V289.271C255.318 286.454 253.055 284.04 250.414 284.04C247.773 284.04 245.51 286.454 245.51 289.271V467.288C245.51 482.777 234.76 495.448 221.371 495.448C207.982 495.448 197.232 482.777 197.232 467.288V140.39L150.178 240.896C147.568 246.473 142.496 250.265 136.693 250.983C136.027 251.065 135.361 251.106 134.699 251.106C129.596 251.106 124.711 248.696 121.402 244.456L82.8496 195.029C78.2051 269.683 61.375 469.623 61.375 469.623C61.375 484.202 50.832 495.448 37.1641 495.448C23.4961 495.448 12.9531 484.202 12.9531 469.623C12.9531 469.623 3.97266 277.531 3.97266 270.933C3.97266 270.933 3.90625 122.31 3.90625 121.829C3.90625 105.225 15.8027 93.4855 30.4785 93.4855C41.5957 93.4855 50.1523 97.4938 59.0898 107.06C59.3457 107.335 131.064 199.129 131.064 199.129C130.943 198.975 162.824 130.181 169.164 117.875C177.648 101.41 189.891 93.4792 205.492 93.3646C205.529 93.3646 205.572 93.3542 205.607 93.3542C205.607 93.3542 293.641 93.3792 294.178 93.4001C309.938 93.3542 322.295 101.292 330.842 117.883C331.02 118.21 368.939 199.129 368.939 199.129C368.939 199.129 440.646 107.335 440.92 107.054C449.656 97.2855 459.572 93.4855 469.523 93.4855C484.199 93.4855 496.096 106.175 496.096 121.829C496.094 127.525 496.027 270.933 496.027 270.933Z" fill="black"/>
</svg>
