<svg width="500" height="500" viewBox="0 0 500 500" fill="none" xmlns="http://www.w3.org/2000/svg">
<g clip-path="url(#clip0_441_2418)">
<path d="M463.834 46.9526C440.474 23.5923 409.417 10.7288 376.38 10.7288C343.345 10.7288 312.286 23.5923 288.929 46.9526C265.568 70.3128 252.703 101.369 252.703 134.407C252.703 167.442 265.568 198.499 288.929 221.858C312.288 245.219 343.345 258.085 376.38 258.085C409.416 258.085 440.475 245.219 463.834 221.858C512.056 173.637 512.056 95.1747 463.834 46.9526ZM444.196 202.221C426.083 220.337 401.997 230.313 376.38 230.313C350.763 230.313 326.68 220.337 308.567 202.221C290.451 184.108 280.476 160.024 280.476 134.407C280.476 108.791 290.451 84.705 308.567 66.5914C326.68 48.4779 350.764 38.5016 376.38 38.5016C401.998 38.5016 426.083 48.4771 444.196 66.5914C481.589 103.983 481.589 164.828 444.196 202.221Z" fill="black"/>
<path d="M415.342 119.978H388.641V93.2777C388.641 85.6086 382.424 79.3921 374.755 79.3921C367.087 79.3921 360.87 85.6086 360.87 93.2777V119.978H334.169C326.501 119.978 320.283 126.195 320.283 133.863C320.283 141.534 326.501 147.749 334.169 147.749H360.87V174.451C360.87 182.121 367.087 188.336 374.755 188.336C382.424 188.336 388.641 182.121 388.641 174.451V147.749H415.342C423.01 147.749 429.227 141.534 429.227 133.863C429.227 126.195 423.011 119.978 415.342 119.978Z" fill="black"/>
<path d="M295.267 384.194C276.312 370.828 253.797 360.965 229.295 355.048C252.02 335.365 266.767 303.878 266.767 268.46C266.767 208.967 225.164 160.566 174.027 160.566C122.892 160.566 81.2883 208.966 81.2883 268.46C81.2883 303.879 96.035 335.365 118.76 355.05C94.2597 360.964 71.745 370.828 52.7891 384.194C18.7475 408.196 0 440.582 0 475.386C0 483.055 6.21731 489.272 13.8856 489.272H334.169C341.838 489.272 348.054 483.055 348.054 475.386C348.055 440.582 329.307 408.196 295.267 384.194ZM266.767 461.501V436.701C266.767 429.033 260.549 422.815 252.881 422.815C245.213 422.815 238.996 429.033 238.996 436.701V461.501H109.06V436.701C109.06 429.033 102.843 422.815 95.1747 422.815C87.5064 422.815 81.2891 429.033 81.2891 436.701V461.501H29.2238C33.5122 441.14 47.1887 422.125 68.7924 406.892C96.7196 387.201 134.094 376.356 174.029 376.356C213.965 376.356 251.339 387.199 279.263 406.892C300.867 422.125 314.544 441.139 318.83 461.501H266.767ZM109.06 268.46C109.06 224.281 138.205 188.338 174.027 188.338C209.851 188.338 238.996 224.282 238.996 268.46C238.996 312.642 209.852 348.585 174.029 348.585C138.206 348.585 109.06 312.641 109.06 268.46Z" fill="black"/>
</g>
<defs>
<clipPath id="clip0_441_2418">
<rect width="500" height="500" fill="white"/>
</clipPath>
</defs>
</svg>
