<svg width="500" height="392" viewBox="0 0 500 392" fill="none" xmlns="http://www.w3.org/2000/svg">
<path d="M498.775 53.7744C496.697 43.2725 492.012 33.3467 485.176 25.002C483.787 23.25 482.335 21.6914 480.747 20.1104C468.585 7.88379 451.667 0.871094 434.33 0.871094H65.668C48.1377 0.871094 31.6504 7.70703 19.2432 20.1172C17.6729 21.6836 16.2168 23.2578 14.7754 25.0654C7.96875 33.375 3.30371 43.2871 1.27539 53.8037C0.427734 57.9336 0 62.2129 0 66.542V325.465C0 334.473 1.83008 343.244 5.45801 351.583C8.59766 358.988 13.3613 366.009 19.2393 371.884C20.7197 373.357 22.1904 374.717 23.7607 376.042C35.5127 385.774 50.3936 391.13 65.668 391.13H434.33C449.703 391.13 464.569 385.754 476.29 375.935C477.856 374.667 479.309 373.336 480.761 371.884C486.442 366.208 490.958 359.687 494.204 352.495L494.632 351.47C498.192 343.289 500 334.546 500 325.466V66.542C500 62.2695 499.588 57.9619 498.775 53.7744ZM34.0068 42.7812C34.9355 41.4219 36.1211 40.0264 37.6338 38.502C45.1426 30.9971 55.1006 26.8672 65.667 26.8672H434.329C444.988 26.8672 454.949 31.0039 462.375 38.5166C463.657 39.8125 464.882 41.251 465.95 42.6885L468.77 46.4775L271.992 217.978C265.926 223.296 258.115 226.223 249.997 226.223C241.959 226.223 234.155 223.303 228.017 217.984L31.4355 46.5264L34.0068 42.7812ZM26.1279 327.751C26.0215 327.046 25.9971 326.263 25.9971 325.465V71.9033L178.702 205.117L27.5381 336.915L26.1279 327.751ZM454.003 359.906C448.093 363.316 441.286 365.125 434.33 365.125H65.668C58.708 365.125 51.9043 363.316 45.998 359.906L39.8184 356.324L196.006 220.212L213.123 235.101C223.391 244.015 236.484 248.929 249.999 248.929C263.563 248.929 276.679 244.015 286.939 235.101L304.05 220.205L460.184 356.332L454.003 359.906ZM473.996 325.465C473.996 326.249 473.981 327.024 473.883 327.715L472.529 336.965L321.301 205.188L473.996 71.9678V325.465Z" fill="black"/>
</svg>
