<svg width="98" height="98" viewBox="0 0 98 98" fill="none" xmlns="http://www.w3.org/2000/svg">
<g clip-path="url(#clip0_111_1157)">
<path d="M49.002 18.5856C53.2534 18.5856 56.6999 15.1392 56.6999 10.8878C56.6999 6.63638 53.2534 3.18994 49.002 3.18994C44.7506 3.18994 41.3042 6.63638 41.3042 10.8878C41.3042 15.1392 44.7506 18.5856 49.002 18.5856Z" fill="black"/>
<path d="M57.2917 27.4688C56.4269 23.1344 52.331 20.1589 47.8882 20.7527C44.2127 21.2403 41.4084 24.0251 40.717 27.4688C43.0359 25.7524 45.9053 24.7338 49.0043 24.7338C52.1034 24.7338 54.9684 25.7545 57.2917 27.4688Z" fill="black"/>
<path d="M76.482 63.7172C74.7179 62.1634 72.0241 62.3367 70.4746 64.103L64.4064 70.9946C62.8526 72.7587 63.0259 75.4525 64.7922 77.0042C65.6006 77.7151 66.604 78.0662 67.603 78.0662C68.7842 78.0662 69.9588 77.5742 70.8018 76.6185L76.8656 69.7247C78.4216 67.9627 78.2482 65.2711 76.482 63.7172Z" fill="black"/>
<path d="M70.7996 23.646C69.2436 21.8819 66.5541 21.7085 64.7922 23.2624C63.0281 24.8162 62.8526 27.5079 64.4064 29.272L70.4746 36.1658C71.3176 37.1215 72.4922 37.6113 73.6755 37.6113C74.6745 37.6113 75.6758 37.2624 76.4863 36.5515C78.2504 34.9977 78.4259 32.306 76.8699 30.5419L70.7996 23.646Z" fill="black"/>
<path d="M49.0411 50.9658C49.0281 50.9658 48.9739 50.9658 48.9609 50.9658C46.2498 50.9658 43.6643 52.1946 41.8569 54.2209C40.0494 56.2451 39.1891 58.9757 39.4946 61.6717L43.8702 89.9491C44.1693 92.6126 46.3494 94.8123 49.0021 94.8123C51.659 94.8123 53.8327 92.6299 54.1383 89.9621L58.5095 61.6674C58.8172 58.9736 57.9547 56.2407 56.1473 54.2166C54.3355 52.1968 51.7544 50.9658 49.0411 50.9658Z" fill="black"/>
<path d="M48.9999 48.5622C54.1825 48.5622 58.3838 44.3609 58.3838 39.1783C58.3838 33.9957 54.1825 29.7944 48.9999 29.7944C43.8173 29.7944 39.616 33.9957 39.616 39.1783C39.616 44.3609 43.8173 48.5622 48.9999 48.5622Z" fill="black"/>
<path d="M89.3291 37.9448C89.3182 37.9448 89.2705 37.9448 89.2575 37.9448C86.7869 37.9448 84.4334 39.0653 82.7907 40.9074C81.1436 42.7495 80.3612 45.2374 80.6386 47.6928L84.6198 73.4346C84.8928 75.8618 86.878 77.8622 89.2922 77.8622C91.7086 77.8622 93.6916 75.8748 93.9668 73.4498L97.9458 47.6885C98.2232 45.2352 97.4408 42.7495 95.7959 40.9074C94.151 39.0653 91.7975 37.9448 89.3291 37.9448Z" fill="black"/>
<path d="M89.2923 35.756C94.0105 35.756 97.8353 31.9311 97.8353 27.213C97.8353 22.4948 94.0105 18.6699 89.2923 18.6699C84.5741 18.6699 80.7493 22.4948 80.7493 27.213C80.7493 31.9311 84.5741 35.756 89.2923 35.756Z" fill="black"/>
<path d="M21.5201 63.7167C23.2864 62.1629 25.978 62.3363 27.5297 64.1025L33.5957 70.9941C35.1495 72.7582 34.9762 75.452 33.2121 77.0037C32.4037 77.7146 31.4003 78.0657 30.4013 78.0657C29.2201 78.0657 28.0455 77.5737 27.2025 76.618L21.1387 69.7242C19.5827 67.9623 19.7517 65.2706 21.5201 63.7167Z" fill="black"/>
<path d="M27.1982 23.646C28.7542 21.8819 31.4437 21.7085 33.2078 23.2624C34.9718 24.8162 35.1452 27.5079 33.5913 29.272L27.5254 36.1658C26.6824 37.1215 25.5077 37.6113 24.3245 37.6113C23.3254 37.6113 22.3242 37.2624 21.5136 36.5515C19.7495 34.9977 19.5762 32.306 21.13 30.5419L27.1982 23.646Z" fill="black"/>
<path d="M8.67089 37.9448C8.68173 37.9448 8.73158 37.9448 8.74458 37.9448C11.213 37.9448 13.5666 39.0653 15.2115 40.9074C16.8585 42.7495 17.6409 45.2374 17.3635 47.6928L13.3802 73.4346C13.1071 75.8618 11.122 77.8622 8.70774 77.8622C6.29133 77.8622 4.30836 75.8748 4.03312 73.4498L0.0541768 47.6885C-0.223223 45.2352 0.55913 42.7495 2.20402 40.9074C3.84891 39.0653 6.20031 37.9448 8.67089 37.9448Z" fill="black"/>
<path d="M8.71003 35.756C13.4282 35.756 17.2531 31.9311 17.2531 27.213C17.2531 22.4948 13.4282 18.6699 8.71003 18.6699C3.99184 18.6699 0.166992 22.4948 0.166992 27.213C0.166992 31.9311 3.99184 35.756 8.71003 35.756Z" fill="black"/>
</g>
<defs>
<clipPath id="clip0_111_1157">
<rect width="98" height="98" fill="white"/>
</clipPath>
</defs>
</svg>
