<svg width="123" height="123" viewBox="0 0 123 123" fill="none" xmlns="http://www.w3.org/2000/svg">
<g clip-path="url(#clip0_111_1140)">
<path d="M61.5 0C27.5347 0 0 27.5347 0 61.5C0 95.4653 27.5347 123 61.5 123C95.4653 123 123 95.4653 123 61.5C123 27.5347 95.4653 0 61.5 0ZM53.4646 12.3288L53.8029 11.9348C54.66 10.9451 55.6306 9.82463 55.7767 7.89891C55.9035 6.29798 55.3385 5.16792 54.7273 4.25311C56.9509 3.99173 59.2072 3.84375 61.5 3.84375C64.3155 3.84375 67.0792 4.05516 69.7871 4.4453C70.2907 5.07375 70.9518 5.72911 72.0242 6.16922C73.1619 6.6593 74.5053 7.04752 76.1966 6.64777C76.6963 6.52861 77.0845 6.3172 77.4189 6.08658C78.6066 6.42675 79.7809 6.79575 80.9378 7.20895C81.3434 8.37937 82.1217 9.77466 84.0205 10.0149C85.0891 10.1667 85.9828 9.99952 86.765 9.66319C103.053 17.6178 115.02 33.0197 118.264 51.4332C117.949 52.0982 117.903 52.7516 117.894 53.1648C117.89 53.2801 117.899 53.3974 117.909 53.4281C117.84 53.5357 117.751 53.5915 117.323 53.7971C116.833 54.0335 116.164 54.3564 115.547 55.006C114.845 55.7305 114.523 56.4474 114.263 57.024C114.061 57.4737 113.946 57.7178 113.737 57.9272C113.602 58.0579 113.341 58.1367 112.929 58.2559C112.126 58.4865 110.913 58.8344 110.098 60.1547C109.324 61.402 109.389 62.5551 109.435 63.3969C109.441 63.493 109.449 63.591 109.453 63.6909C109.305 63.764 109.124 63.8389 108.936 63.9004C109.047 63.2931 109.063 62.4533 108.519 61.5903C107.785 60.4699 106.814 60.3008 106.303 60.3008C105.326 60.3008 104.59 60.8619 104.118 61.3213C104.127 60.3911 104.106 59.5339 103.954 58.892C103.812 58.2463 103.902 57.8869 104.206 56.8452L104.312 56.4801C104.448 55.9842 104.719 55.6306 105.092 55.1386C105.605 54.4659 106.243 53.6299 106.547 52.3384C106.887 50.9316 106.787 49.8938 106.689 48.8887C106.653 48.5331 106.616 48.1583 106.599 47.7259L106.562 46.7093C106.524 45.5138 106.493 44.4818 106.199 42.975L106.066 42.3043C105.77 40.7918 105.513 39.4868 104.433 37.8398C103.508 36.458 102.778 35.4874 101.158 34.6264C100.775 34.4169 100.378 34.2478 99.9721 34.121C99.3167 33.9019 98.7171 33.8269 98.1367 33.752L97.5371 33.6712C96.5127 33.5213 95.5902 33.7001 94.9118 33.8385C94.3621 33.9499 94.0124 34.0402 93.7375 33.8884C93.4627 33.7385 93.332 33.5809 92.9918 33.1504C92.8112 32.9217 92.6209 32.6815 92.3692 32.4028C92.1155 32.1299 91.9425 31.8762 91.7753 31.636C91.4447 31.1651 91.0354 30.577 90.3147 29.9947C89.5459 29.3701 88.9598 28.9319 87.8566 28.5456C85.8944 27.896 84.0897 28.3803 82.533 28.9319C81.2569 29.3739 80.4785 30.0158 79.7886 30.5809C79.4868 30.8307 79.1678 31.0959 78.8584 31.3035C78.5547 31.4803 78.2818 31.6033 78.0243 31.7263C77.417 32.0088 76.727 32.3317 75.964 33.0101C75.4336 33.4752 73.6328 34.6495 73.2158 34.7552C73.0293 34.7475 72.8448 34.6725 72.5085 34.5284C72.0742 34.3401 71.4822 34.0883 70.798 34.0326L70.381 34.0076C70.2522 34.0076 70.1196 34.0153 70.0216 34.0249C69.1491 34.0902 68.536 34.3747 68.0843 34.5803C67.9075 34.661 67.7269 34.7533 67.5001 34.809C66.8351 34.9743 66.0856 34.9627 65.3322 34.9224C64.1272 34.8609 62.9452 34.8955 61.8613 35.203C60.9715 35.4548 60.3277 35.8891 59.8587 36.2081C59.3533 36.5502 59.2322 36.6098 59.04 36.6117C58.8459 36.6117 58.7075 36.531 58.1713 36.1082C57.6409 35.6892 56.9125 35.1146 55.8382 34.8167C55.0636 34.6091 54.5121 34.5419 53.9278 34.4708L53.3955 34.4054C52.3865 34.2593 51.6658 34.1998 50.849 34.1325C50.4704 34.1017 50.0706 34.071 49.6036 34.0249L49.0616 34.0153L48.9732 34.0499C48.9098 34.0537 48.8348 34.0575 48.7522 34.0614L48.7311 34.0479C48.1161 33.6194 47.4799 33.1792 46.5459 32.7257C45.8579 32.3874 45.2986 32.1299 44.6836 31.9089C44.6567 31.2228 44.5798 30.308 44.3742 29.693C44.33 29.5527 44.2838 29.4297 44.2243 29.2759C44.2454 29.1875 44.2838 29.0395 44.3588 28.8147C44.6086 28.092 44.9969 27.5501 45.166 27.3329C45.2698 27.2618 45.3659 27.2003 45.4581 27.1388C45.8175 26.9082 46.2615 26.6199 46.7189 26.124C48.0008 24.7672 48.5831 23.4584 48.7291 21.5942C48.8445 19.9298 47.9162 18.8113 47.3012 18.0695C47.1244 17.86 46.8515 17.5313 46.813 17.4891C46.8957 17.1643 47.0398 17.024 47.8432 16.4916C48.2813 16.2014 48.7388 15.892 49.175 15.5095C49.6709 15.081 50.1475 14.81 50.6971 14.4967C51.5581 14.0066 52.5325 13.4512 53.4646 12.3288ZM8.46778 84.1493C6.28069 79.0352 4.81622 73.5386 4.19161 67.7922C4.66247 66.9081 5.23327 66.051 6.0097 65.1054C6.56512 64.4424 7.15514 64.0407 7.83548 63.5775C8.66381 63.0125 9.60361 62.3706 10.4934 61.2578C11.562 59.9567 11.9118 58.5691 12.1943 57.4525C12.498 56.2552 12.6709 55.6594 13.3051 55.2193C14.1892 54.6158 14.8888 54.5505 16.1572 54.4313C16.6127 54.391 17.0951 54.3429 17.6274 54.268L18.3347 54.1642C20.8293 53.7971 22.4225 53.6318 24.4962 54.2161C25.903 54.6101 26.7698 55.2674 27.8672 56.0976C28.5898 56.6453 29.4085 57.2642 30.454 57.8619C31.2651 58.3251 31.9512 58.8363 32.6142 59.3302C34.096 60.4314 35.6277 61.5692 38.1742 61.942C39.6348 62.1438 40.8648 61.6922 41.7969 61.3405C42.264 61.1618 42.706 60.9945 42.9808 60.9945C43.0442 60.9945 43.125 61.0003 43.2556 61.0714C44.5145 61.771 44.7951 62.3514 44.847 62.7492C44.5779 62.8242 44.1878 62.8914 43.9014 62.9433C42.5503 63.1797 40.0365 63.6198 39.7463 66.2086C39.6002 67.4578 40.0288 68.24 40.419 68.6744C41.426 69.8102 43.3037 69.6891 45.4197 69.2125C46.3306 69.0068 47.2743 68.7916 48.0296 68.7916C48.3736 68.7916 48.5773 68.8377 48.6696 68.8704C49.2269 69.0722 49.8285 69.2202 50.4146 69.3586C50.6722 69.4181 51.0162 69.4988 51.3121 69.5796C51.095 69.6199 50.872 69.6603 50.6837 69.693C49.7977 69.8448 48.7964 70.0178 47.8797 70.454C47.157 70.7903 46.5401 71.1094 45.9616 71.4111C44.7816 72.0223 43.8476 72.5066 42.4254 72.8929C41.991 73.0082 41.3318 72.9102 40.638 72.7929C40.0884 72.6988 39.5214 72.6027 38.9218 72.6027C37.5035 72.6027 36.3869 73.1658 35.6104 74.2651C33.8346 76.7482 34.8878 79.3446 35.3952 80.5957C36.0851 82.2928 37.711 84.3165 41.5202 84.3165C43.3133 84.3165 45.387 83.8802 48.045 82.9462C49.8784 82.2966 50.9527 81.1223 51.8137 80.1768C52.5095 79.4119 53.0591 78.8084 53.947 78.4125L54.9253 77.9666C56.9394 77.0384 58.4135 76.3772 59.9971 77.1229C60.4218 77.3228 60.6063 77.7033 60.9926 78.6566C61.4404 79.7674 62.0554 81.2895 63.7678 82.2005C65.3265 83.0269 67.2733 82.7271 68.6955 82.3197C69.5488 82.0756 70.233 81.8661 70.7288 82.1563C71.2497 82.4657 71.4649 82.8847 71.8608 83.7265C72.2145 84.4779 72.6526 85.412 73.5002 86.2999C73.7539 86.567 73.9922 86.8265 74.2209 87.0763C75.6258 88.6157 76.9557 90.0687 79.5868 90.6914C79.9654 90.7798 80.3517 90.824 80.736 90.824C82.0814 90.824 83.1634 90.2878 84.0321 89.8553C84.7777 89.4863 85.3524 89.2096 85.8213 89.3557C87.7836 89.9976 88.191 90.4377 88.3755 91.2218C88.5369 91.8503 87.872 92.3788 85.4081 93.5684C85.0161 93.7587 84.6259 93.947 84.255 94.1392C82.9308 94.8215 81.9391 94.906 80.4382 95.0348C79.8385 95.0848 79.1985 95.1405 78.5086 95.2347C77.1152 95.4096 75.8564 95.7113 74.6379 96.0034C73.233 96.3417 71.905 96.6588 70.75 96.6588C69.5949 96.6588 68.6724 96.3417 67.7807 95.6421C67.0504 95.0579 66.7121 94.4371 66.2432 93.5799C65.903 92.9573 65.5186 92.2519 64.9113 91.4486C64.3751 90.7721 63.9139 89.7996 63.468 88.856C62.484 86.7746 61.2598 84.1839 58.475 84.1839C58.0003 84.1839 57.5063 84.2685 57.0067 84.4376C54.8426 85.166 54.1219 86.8995 53.5953 88.1641C53.3685 88.708 53.1552 89.2211 52.8669 89.6439C52.1462 90.6721 51.783 91.7638 51.4601 92.7266C50.9201 94.3429 50.751 94.5332 50.3205 94.5966C49.6267 94.6965 49.1904 94.4025 48.1583 93.6568C47.8508 93.4339 47.5318 93.2013 47.1936 92.9784C46.5286 92.5364 46.1365 92.0463 45.6388 91.4236C45.0833 90.7298 44.453 89.9418 43.4209 89.2C42.2736 88.3544 41.2377 87.9488 40.3248 87.5895C39.5868 87.3012 38.9487 87.0513 38.2453 86.5843C37.9782 86.4056 37.7418 86.1058 37.467 85.756C36.8423 84.9642 35.8987 83.7668 34.0345 83.6996L33.8404 83.6957C32.4355 83.6957 30.4732 84.1954 29.101 86.5728C28.6033 87.4338 28.2554 88.5965 27.8826 89.8265C27.2791 91.8349 26.4508 94.5812 25.1535 94.5812H25.1516C23.8101 94.4909 19.8607 91.0334 17.9618 89.371C16.6012 88.1795 15.425 87.1513 14.5774 86.5901L13.9394 86.15C12.4883 85.141 10.9931 84.1012 9.01744 84.1012C8.83678 84.1012 8.65228 84.1301 8.46778 84.1493ZM61.5 119.156C39.4292 119.156 20.2604 106.749 10.5722 88.5293C10.9412 88.7541 11.3275 89.0136 11.7407 89.2999L12.4365 89.7785C13.0822 90.207 14.22 91.2007 15.425 92.2558C19.4225 95.7536 22.4398 98.2424 24.8979 98.4096C29.2413 98.696 30.6366 93.9874 31.5591 90.9277C31.8493 89.961 32.153 88.9617 32.4259 88.485C32.9352 87.6048 33.4214 87.5318 33.9096 87.5299C34.0172 87.5875 34.2728 87.9142 34.4419 88.1295C34.8378 88.633 35.3337 89.2596 36.1082 89.7766C37.1595 90.4742 38.0916 90.8393 38.918 91.1622C39.7098 91.4716 40.394 91.7407 41.1512 92.3019C41.7758 92.7478 42.1717 93.2455 42.633 93.8202C43.2268 94.5601 43.8956 95.3961 45.0641 96.1764C45.3601 96.3724 45.633 96.5704 45.8982 96.7606C47.1436 97.6678 48.5792 98.7152 50.8567 98.3981C53.7491 97.983 54.562 95.5518 55.1002 93.9432C55.3635 93.159 55.6114 92.4191 56.0246 91.8253C56.5473 91.0604 56.8625 90.3051 57.1373 89.6401C57.6313 88.4562 57.7946 88.2237 58.229 88.0776C58.3635 88.0315 58.4365 88.018 58.4865 88.0257C58.8766 88.1487 59.5993 89.6766 59.9875 90.4973C60.5006 91.5831 61.083 92.8131 61.8671 93.8009C62.2764 94.341 62.5609 94.8657 62.8665 95.4192C63.4161 96.4282 64.0407 97.5736 65.3879 98.6537C66.9773 99.8971 68.7282 100.503 70.7461 100.503C72.3567 100.503 73.8999 100.134 75.5297 99.7415C76.6463 99.4724 77.8033 99.1957 79.0044 99.0457C79.6425 98.9593 80.2191 98.9112 80.7591 98.8632C82.4311 98.7229 84.009 98.5864 86.0154 97.5525C86.3575 97.3756 86.715 97.2027 87.0763 97.0297C89.469 95.8727 93.086 94.1257 92.1039 90.3051C91.3582 87.1263 88.5312 86.1999 86.9975 85.7002C86.5132 85.5465 86.0154 85.4677 85.5177 85.4677C84.2243 85.4677 83.1672 85.9924 82.3177 86.4152C81.5798 86.7823 80.9628 87.0648 80.4612 86.9514C78.9891 86.6016 78.2607 85.804 77.0557 84.4856C76.8116 84.2166 76.556 83.9417 76.2831 83.6515C75.8641 83.2114 75.62 82.6925 75.3375 82.091C74.8532 81.0608 74.2516 79.779 72.6911 78.8507C71.1228 77.9186 69.0972 78.203 67.6269 78.6277C66.7794 78.8718 66.0952 79.0871 65.5724 78.8065C65.1343 78.5759 64.9363 78.1684 64.5558 77.2209C64.0945 76.0774 63.4642 74.5111 61.6345 73.6482C60.6198 73.1715 59.6108 72.939 58.5538 72.939C56.6511 72.939 55.029 73.6885 53.3109 74.4823L52.3826 74.907C50.7586 75.6296 49.7689 76.7174 48.9713 77.5919C48.2256 78.4106 47.6875 79.0006 46.7669 79.3254C44.5644 80.0999 42.8482 80.4785 41.5221 80.4785C39.7386 80.4785 39.2255 79.8059 38.9583 79.1543C38.3087 77.5534 38.3702 77.0249 38.9237 76.4541C39.2601 76.4541 39.6195 76.5252 39.9942 76.5886C40.9974 76.7578 42.3005 76.9038 43.419 76.6136C45.2525 76.1178 46.4575 75.4912 47.7336 74.8282C48.2679 74.5495 48.8348 74.2555 49.5152 73.9384C49.9668 73.725 50.6645 73.604 51.3352 73.4887C52.8285 73.2311 55.94 72.6988 55.7132 69.4835C55.4807 66.6083 52.8612 65.9933 51.2948 65.6243C50.8547 65.5206 50.4031 65.4206 49.9707 65.263C49.4249 65.0689 48.8291 64.969 48.1564 64.9575C48.437 64.5423 48.6311 64.0273 48.6849 63.3815C48.8483 61.0291 47.651 59.1246 45.1199 57.7197C44.4472 57.3488 43.7284 57.1604 42.9847 57.1604C42.0007 57.1604 41.1685 57.4775 40.4343 57.7581C39.7732 58.008 39.1966 58.2155 38.7258 58.1483C37.1498 57.9176 36.21 57.22 34.9128 56.2552C34.194 55.7209 33.3772 55.1136 32.3663 54.5332C31.5341 54.0604 30.8845 53.5665 30.1946 53.0457C28.9434 52.0982 27.65 51.1161 25.5436 50.5242C22.8626 49.7708 20.5794 49.9553 17.7773 50.3704L17.0874 50.4723C16.63 50.5376 16.2072 50.5761 15.8074 50.6126C14.3526 50.749 12.8497 50.8893 11.1315 52.0617C9.27305 53.3532 8.83102 55.1078 8.47355 56.5185C8.24677 57.416 8.04881 58.1905 7.51069 58.8497C6.9668 59.5301 6.396 59.9183 5.6753 60.4103C5.10834 60.7966 4.4895 61.2271 3.85528 61.821C3.85144 61.7076 3.84375 61.6057 3.84375 61.5C3.84375 33.4176 23.9273 10.0341 50.5126 4.9027C50.726 5.23327 50.9451 5.55422 51.1545 5.84442C51.8234 6.76692 51.9886 7.06097 51.9444 7.60294C51.8964 8.23908 51.6542 8.54466 50.897 9.41719L50.5203 9.85922C50.0206 10.4588 49.5075 10.7529 48.7945 11.1584C48.1641 11.5197 47.4473 11.9272 46.6593 12.6075C46.346 12.8804 46.0251 13.088 45.7214 13.2878C44.8047 13.8952 43.5478 14.7292 43.0865 16.557C42.6176 18.4462 43.6996 19.7511 44.3473 20.5314C44.5548 20.7851 44.9065 21.2079 44.8988 21.3213C44.822 22.3014 44.6163 22.7685 43.911 23.5122C43.7745 23.6621 43.6554 23.7409 43.3806 23.9197C43.1634 24.058 42.9347 24.2079 42.681 24.402L42.4485 24.6135C42.3331 24.7345 41.3222 25.8492 40.7226 27.5943C40.2671 28.9684 40.2479 29.6853 40.638 30.6654L40.7226 30.8922C40.7918 31.1248 40.8571 31.9435 40.861 32.472L40.6995 34.8128L42.264 35.203C43.2922 35.4586 43.813 35.6719 44.8643 36.1908C45.5388 36.5156 45.9828 36.825 46.544 37.2152L47.109 37.5976C47.8624 38.0474 48.6273 37.9686 49.4402 37.8782C49.8457 37.9186 50.2032 37.9455 50.5434 37.9743C51.2833 38.032 51.9367 38.0858 52.8669 38.2203L53.4704 38.2953C53.9393 38.3529 54.3122 38.3933 54.8311 38.5317C55.1271 38.6143 55.3788 38.8065 55.7959 39.1332C56.507 39.6944 57.4814 40.4612 59.0727 40.4612C60.4641 40.4516 61.3635 39.8405 62.0208 39.3927C62.4014 39.1351 62.6301 38.9852 62.9145 38.9064C63.5833 38.7162 64.3482 38.7239 65.1266 38.7642C66.249 38.8276 67.3848 38.8046 68.438 38.5432C68.928 38.4202 69.3182 38.2511 69.691 38.0781C70.0178 37.9282 70.1388 37.8763 70.1792 37.8686L70.3176 37.8725L70.4175 37.8609C70.5443 37.8705 70.7423 37.9551 70.9921 38.0608C71.4861 38.2722 72.1606 38.5643 73.1792 38.5989C75.2529 38.5989 78.4663 35.9275 78.5047 35.8949C78.8622 35.5797 79.1601 35.4413 79.656 35.2087C80.0057 35.0454 80.3728 34.8705 80.8783 34.5765C81.4087 34.2247 81.8315 33.8827 82.2313 33.554C82.7963 33.0908 83.1672 32.7833 83.8072 32.5604C85.1467 32.0838 85.7848 31.907 86.6151 32.1876C87.0898 32.3528 87.282 32.4855 87.895 32.9832C88.1948 33.2254 88.3544 33.456 88.6234 33.8385C88.8848 34.2132 89.1616 34.6014 89.5363 35.0012C89.7035 35.1876 89.8419 35.3625 89.9726 35.5297C90.3915 36.0582 90.9124 36.7193 91.8887 37.2575C93.1052 37.9186 94.5947 37.8225 95.6902 37.6015C96.1822 37.5015 96.5646 37.4093 96.974 37.4727L97.6543 37.565C98.1233 37.6245 98.4615 37.6688 98.7901 37.7764C98.9554 37.8263 99.1284 37.8955 99.336 38.007C100.178 38.4548 100.493 38.8545 101.233 39.9615C101.89 40.9648 102.034 41.7028 102.298 43.0442L102.434 43.7303C102.667 44.9123 102.692 45.7156 102.724 46.8265L102.763 47.8854C102.784 48.3947 102.824 48.8406 102.866 49.2615C102.949 50.1033 103.003 50.6606 102.813 51.4486C102.699 51.9291 102.471 52.2462 102.04 52.8112C101.552 53.4512 100.945 54.2488 100.618 55.4422L100.522 55.769C100.174 56.9605 99.8433 58.0868 100.214 59.753C100.301 60.1239 100.283 61.2136 100.27 62.0093C100.233 64.1849 100.212 65.6224 101.123 66.5488C101.54 66.9735 102.094 67.206 102.682 67.206L103.278 67.1657L103.67 66.9773C104.218 66.716 104.692 66.3412 105.119 65.9261C105.134 65.9607 105.148 65.9933 105.161 66.0279C105.69 67.208 106.82 67.8864 108.265 67.8864C109.849 67.8864 113.054 66.764 113.273 64.6865C113.325 64.1387 113.304 63.6429 113.277 63.1759C113.237 62.5013 113.25 62.3706 113.379 62.165C113.454 62.1073 113.777 62.0131 113.99 61.9536C114.663 61.7595 115.58 61.4981 116.429 60.6774C117.173 59.9394 117.505 59.1976 117.772 58.6037C117.972 58.1579 118.088 57.9138 118.322 57.6716C118.461 57.5256 118.649 57.4295 118.991 57.2661C119.087 58.6652 119.156 60.074 119.156 61.5C119.156 93.3416 93.3416 119.156 61.5 119.156Z" fill="black"/>
<path d="M85.7715 54.1239C83.6574 54.7331 82.8963 56.3475 82.339 57.5275C82.0411 58.1617 81.7816 58.7075 81.355 59.1015C80.6016 59.8049 79.8732 60.1931 79.0276 60.6429C78.0897 61.1425 77.0269 61.7076 75.9276 62.7339C75.5356 63.0971 75.0858 63.4104 74.6573 63.7159C73.2408 64.7211 71.0979 66.2413 71.7264 69.1049C72.1377 70.9018 73.5195 71.9742 75.4202 71.9742C76.6791 71.9742 78.0455 71.5341 79.3697 71.1075C80.0231 70.898 80.6708 70.6847 81.2608 70.554C84.6279 69.8179 86.9323 68.9357 89.4538 66.4027C89.7305 66.1279 90.0188 65.8531 90.3109 65.5725C92.4903 63.4968 95.7806 60.3584 93.334 56.7261C91.6889 54.2565 88.7734 53.2609 85.7715 54.1239ZM87.6568 62.7896C87.3455 63.0875 87.0361 63.3835 86.7343 63.6833C84.8451 65.5821 83.2634 66.1798 80.4363 66.7986C79.7349 66.9524 78.9623 67.1984 78.1877 67.4482C77.223 67.7576 76.1333 68.1113 75.4702 68.1286C75.5106 67.8941 75.8161 67.6077 76.8828 66.8505C77.4036 66.4796 77.9975 66.0587 78.5452 65.5475C79.2794 64.8652 79.9981 64.4808 80.8322 64.0369C81.7797 63.5314 82.856 62.9606 83.9687 61.919C84.9374 61.0272 85.4236 59.9971 85.8137 59.1688C86.3057 58.129 86.4576 57.9272 86.8362 57.8177C87.2071 57.7101 87.5684 57.6563 87.9105 57.6563C88.8541 57.6563 89.6037 58.0599 90.1399 58.8651C90.6357 59.6012 90.0784 60.4814 87.6568 62.7896Z" fill="black"/>
<path d="M62.3111 102.015C61.8672 102.015 61.4174 102.084 60.9524 102.227C58.1503 103.13 58.2829 105.943 58.3521 107.456C58.379 108.011 58.402 108.536 58.3501 108.993C58.3059 109.411 58.1906 109.81 58.0888 110.195C57.7467 111.486 57.2316 113.435 58.9286 115.107C59.7281 115.876 60.7371 116.283 61.8499 116.283C63.5008 116.283 65.3592 115.328 66.8333 113.719C69.0896 111.207 69.1165 107.537 66.9159 104.815C65.8897 103.51 64.4425 102.015 62.3111 102.015ZM63.9832 111.136C63.2029 111.992 62.3188 112.439 61.8499 112.439C61.7346 112.439 61.6769 112.416 61.5846 112.338C61.5443 112.161 61.7038 111.571 61.8057 111.179C61.9421 110.658 62.0997 110.066 62.1689 109.422C62.2573 108.671 62.2208 107.931 62.192 107.275C62.1708 106.828 62.142 106.178 62.1977 105.87C62.5206 105.813 62.8992 105.926 63.9082 107.21C64.9441 108.492 64.971 110.039 63.9832 111.136Z" fill="black"/>
</g>
<defs>
<clipPath id="clip0_111_1140">
<rect width="123" height="123" fill="white"/>
</clipPath>
</defs>
</svg>
