<svg width="123" height="123" viewBox="0 0 123 123" fill="none" xmlns="http://www.w3.org/2000/svg">
<path d="M61.5 28.1905L58.7304 30.856C59.4551 31.6089 60.455 32.0343 61.5 32.0343C62.545 32.0343 63.5449 31.6089 64.2695 30.856L61.5 28.1905ZM13.6154 68.6565C14.7373 70.4585 17.1078 71.0099 18.9099 69.888C20.712 68.7662 21.2634 66.3954 20.1414 64.5934L13.6154 68.6565ZM33.4647 80.8304C31.9618 79.3314 29.5281 79.3339 28.0288 80.8371C26.5295 82.3397 26.5324 84.7736 28.0353 86.2727L33.4647 80.8304ZM14.0937 46.8274C14.0937 32.4627 20.537 23.5497 28.5934 20.4851C36.6717 17.4123 47.9254 19.6297 58.7304 30.856L64.2695 25.525C52.0131 12.7911 37.6416 8.81849 25.8603 13.2999C14.0572 17.7896 6.40625 30.1752 6.40625 46.8274H14.0937ZM79.4508 99.937C87.0989 93.9074 96.2665 85.8237 103.556 76.7919C110.765 67.8611 116.594 57.4456 116.594 46.8272H108.906C108.906 54.776 104.436 63.4623 97.5744 71.9637C90.7945 80.3635 82.1225 88.0413 74.6917 93.8997L79.4508 99.937ZM116.594 46.8272C116.594 30.1751 108.943 17.7896 97.1398 13.2999C85.3584 8.81854 70.9869 12.7911 58.7304 25.525L64.2695 30.856C75.0746 19.6297 86.328 17.4123 94.4066 20.4851C102.463 23.5496 108.906 32.4626 108.906 46.8272H116.594ZM43.5493 99.9364C50.0801 105.085 54.5818 108.834 61.5 108.834V101.146C57.7552 101.146 55.4305 99.5141 48.3085 93.8997L43.5493 99.9364ZM74.6917 93.8997C67.5695 99.5141 65.2448 101.146 61.5 101.146V108.834C68.4182 108.834 72.92 105.085 79.4508 99.937L74.6917 93.8997ZM20.1414 64.5934C16.3182 58.4526 14.0937 52.4349 14.0937 46.8274H6.40625C6.40625 54.4121 9.38152 61.8561 13.6154 68.6565L20.1414 64.5934ZM48.3085 93.8997C43.609 90.1948 38.391 85.7448 33.4647 80.8304L28.0353 86.2727C33.2278 91.453 38.6845 96.1014 43.5493 99.9364L48.3085 93.8997Z" fill="black"/>
</svg>
