<svg width="98" height="98" viewBox="0 0 98 98" fill="none" xmlns="http://www.w3.org/2000/svg">
<g clip-path="url(#clip0_111_1186)">
<path d="M49.0001 53.0837C51.2552 53.0837 53.0834 51.2555 53.0834 49.0003C53.0834 46.7452 51.2552 44.917 49.0001 44.917C46.7449 44.917 44.9167 46.7452 44.9167 49.0003C44.9167 51.2555 46.7449 53.0837 49.0001 53.0837Z" fill="black"/>
<path d="M49.0001 36.7502C51.2552 36.7502 53.0834 34.922 53.0834 32.6668C53.0834 30.4117 51.2552 28.5835 49.0001 28.5835C46.7449 28.5835 44.9167 30.4117 44.9167 32.6668C44.9167 34.922 46.7449 36.7502 49.0001 36.7502Z" fill="black"/>
<path d="M49.0001 20.4167C51.2552 20.4167 53.0834 18.5885 53.0834 16.3333C53.0834 14.0782 51.2552 12.25 49.0001 12.25C46.7449 12.25 44.9167 14.0782 44.9167 16.3333C44.9167 18.5885 46.7449 20.4167 49.0001 20.4167Z" fill="black"/>
<path d="M49.0001 85.7502C51.2552 85.7502 53.0834 83.922 53.0834 81.6668C53.0834 79.4117 51.2552 77.5835 49.0001 77.5835C46.7449 77.5835 44.9167 79.4117 44.9167 81.6668C44.9167 83.922 46.7449 85.7502 49.0001 85.7502Z" fill="black"/>
<path d="M49.0001 69.4167C51.2552 69.4167 53.0834 67.5885 53.0834 65.3333C53.0834 63.0782 51.2552 61.25 49.0001 61.25C46.7449 61.25 44.9167 63.0782 44.9167 65.3333C44.9167 67.5885 46.7449 69.4167 49.0001 69.4167Z" fill="black"/>
<path d="M65.3333 53.0837C67.5885 53.0837 69.4167 51.2555 69.4167 49.0003C69.4167 46.7452 67.5885 44.917 65.3333 44.917C63.0782 44.917 61.25 46.7452 61.25 49.0003C61.25 51.2555 63.0782 53.0837 65.3333 53.0837Z" fill="black"/>
<path d="M81.6666 53.0837C83.9217 53.0837 85.7499 51.2555 85.7499 49.0003C85.7499 46.7452 83.9217 44.917 81.6666 44.917C79.4114 44.917 77.5833 46.7452 77.5833 49.0003C77.5833 51.2555 79.4114 53.0837 81.6666 53.0837Z" fill="black"/>
<path d="M16.3333 53.0837C18.5885 53.0837 20.4167 51.2555 20.4167 49.0003C20.4167 46.7452 18.5885 44.917 16.3333 44.917C14.0782 44.917 12.25 46.7452 12.25 49.0003C12.25 51.2555 14.0782 53.0837 16.3333 53.0837Z" fill="black"/>
<path d="M32.6666 53.0837C34.9217 53.0837 36.7499 51.2555 36.7499 49.0003C36.7499 46.7452 34.9217 44.917 32.6666 44.917C30.4114 44.917 28.5833 46.7452 28.5833 49.0003C28.5833 51.2555 30.4114 53.0837 32.6666 53.0837Z" fill="black"/>
<path d="M85.7501 24.5001C84.3041 24.4872 82.8807 24.8584 81.6252 25.5758C80.3697 26.2932 79.3272 27.3311 78.6042 28.5834H69.4168V19.3959C70.9737 18.4971 72.1905 17.1096 72.8784 15.4487C73.5664 13.7877 73.6871 11.9462 73.2218 10.2097C72.7565 8.47321 71.7312 6.93876 70.305 5.84435C68.8787 4.74994 67.1312 4.15674 65.3334 4.15674C63.5357 4.15674 61.7881 4.74994 60.3619 5.84435C58.9356 6.93876 57.9103 8.47321 57.445 10.2097C56.9797 11.9462 57.1004 13.7877 57.7884 15.4487C58.4764 17.1096 59.6932 18.4971 61.2501 19.3959V36.7501H78.6042C79.3195 37.9889 80.3476 39.018 81.5856 39.7346C82.8236 40.4511 84.2281 40.8299 85.6585 40.8331C87.0889 40.8363 88.4951 40.4637 89.7363 39.7526C90.9774 39.0415 92.0101 38.017 92.7308 36.7814C93.4515 35.5458 93.8351 34.1426 93.8431 32.7122C93.8512 31.2818 93.4833 29.8744 92.7765 28.6309C92.0696 27.3873 91.0486 26.3512 89.8154 25.6263C88.5823 24.9013 87.1804 24.513 85.7501 24.5001ZM65.3334 16.3334C64.5258 16.3334 63.7363 16.094 63.0648 15.6453C62.3933 15.1966 61.87 14.5589 61.5609 13.8127C61.2519 13.0666 61.171 12.2456 61.3285 11.4535C61.4861 10.6614 61.875 9.93382 62.4461 9.36276C63.0171 8.7917 63.7447 8.4028 64.5368 8.24524C65.3289 8.08768 66.1499 8.16855 66.896 8.4776C67.6422 8.78666 68.2799 9.31003 68.7286 9.98153C69.1773 10.653 69.4168 11.4425 69.4168 12.2501C69.4168 13.3331 68.9865 14.3717 68.2208 15.1375C67.455 15.9032 66.4164 16.3334 65.3334 16.3334ZM85.7501 36.7501C84.9425 36.7501 84.153 36.5106 83.4815 36.0619C82.81 35.6133 82.2866 34.9755 81.9776 34.2294C81.6685 33.4833 81.5877 32.6623 81.7452 31.8702C81.9028 31.0781 82.2917 30.3505 82.8627 29.7794C83.4338 29.2084 84.1614 28.8195 84.9535 28.6619C85.7456 28.5044 86.5666 28.5852 87.3127 28.8943C88.0588 29.2033 88.6966 29.7267 89.1453 30.3982C89.5939 31.0697 89.8334 31.8592 89.8334 32.6668C89.8334 33.7497 89.4032 34.7884 88.6374 35.5541C87.8717 36.3199 86.8331 36.7501 85.7501 36.7501Z" fill="black"/>
<path d="M4.08334 32.6668C4.05398 34.4885 4.63466 36.2678 5.73299 37.7215C6.83133 39.1752 8.38424 40.2198 10.1447 40.6893C11.9052 41.1587 13.772 41.026 15.4484 40.3122C17.1247 39.5984 18.5142 38.3446 19.3958 36.7501H36.75V19.3959C38.3069 18.4971 39.5237 17.1096 40.2117 15.4487C40.8997 13.7877 41.0204 11.9462 40.5551 10.2097C40.0898 8.47321 39.0645 6.93876 37.6382 5.84435C36.212 4.74994 34.4644 4.15674 32.6667 4.15674C30.8689 4.15674 29.1214 4.74994 27.6951 5.84435C26.2689 6.93876 25.2436 8.47321 24.7783 10.2097C24.313 11.9462 24.4337 13.7877 25.1217 15.4487C25.8096 17.1096 27.0264 18.4971 28.5833 19.3959V28.5834H19.3958C18.5142 26.989 17.1247 25.7351 15.4484 25.0213C13.772 24.3076 11.9052 24.1748 10.1447 24.6443C8.38424 25.1137 6.83133 26.1584 5.73299 27.6121C4.63466 29.0658 4.05398 30.845 4.08334 32.6668ZM28.5833 12.2501C28.5833 11.4425 28.8228 10.653 29.2715 9.98153C29.7202 9.31003 30.3579 8.78666 31.104 8.4776C31.8502 8.16855 32.6712 8.08768 33.4633 8.24524C34.2554 8.4028 34.983 8.7917 35.554 9.36276C36.1251 9.93382 36.514 10.6614 36.6715 11.4535C36.8291 12.2456 36.7482 13.0666 36.4392 13.8127C36.1301 14.5589 35.6068 15.1966 34.9353 15.6453C34.2638 16.094 33.4743 16.3334 32.6667 16.3334C31.5837 16.3334 30.5451 15.9032 29.7793 15.1375C29.0135 14.3717 28.5833 13.3331 28.5833 12.2501ZM8.16667 32.6668C8.16667 31.8592 8.40615 31.0697 8.85484 30.3982C9.30352 29.7267 9.94125 29.2033 10.6874 28.8943C11.4335 28.5852 12.2545 28.5044 13.0466 28.6619C13.8387 28.8195 14.5663 29.2084 15.1374 29.7794C15.7084 30.3505 16.0973 31.0781 16.2549 31.8702C16.4124 32.6623 16.3316 33.4833 16.0225 34.2294C15.7135 34.9755 15.1901 35.6133 14.5186 36.0619C13.8471 36.5106 13.0576 36.7501 12.25 36.7501C11.167 36.7501 10.1284 36.3199 9.36265 35.5541C8.59688 34.7884 8.16667 33.7497 8.16667 32.6668Z" fill="black"/>
<path d="M85.7501 57.1668C84.3041 57.1539 82.8807 57.5251 81.6252 58.2425C80.3697 58.9599 79.3272 59.9978 78.6042 61.2502H61.2501V78.6043C59.6932 79.5032 58.4764 80.8907 57.7884 82.5516C57.1004 84.2125 56.9797 86.0541 57.445 87.7906C57.9103 89.5271 58.9356 91.0615 60.3619 92.1559C61.7881 93.2503 63.5357 93.8435 65.3334 93.8435C67.1312 93.8435 68.8787 93.2503 70.305 92.1559C71.7312 91.0615 72.7565 89.5271 73.2218 87.7906C73.6871 86.0541 73.5664 84.2125 72.8784 82.5516C72.1905 80.8907 70.9737 79.5032 69.4168 78.6043V69.4168H78.6042C79.3195 70.6556 80.3476 71.6847 81.5856 72.4013C82.8236 73.1178 84.2281 73.4966 85.6585 73.4998C87.0889 73.503 88.4951 73.1304 89.7363 72.4193C90.9774 71.7083 92.0101 70.6837 92.7308 69.4481C93.4515 68.2126 93.8351 66.8093 93.8431 65.379C93.8512 63.9486 93.4833 62.5411 92.7765 61.2976C92.0696 60.054 91.0486 59.0179 89.8154 58.293C88.5823 57.568 87.1804 57.1797 85.7501 57.1668ZM65.3334 89.8335C64.5258 89.8335 63.7363 89.594 63.0648 89.1453C62.3933 88.6967 61.87 88.0589 61.5609 87.3128C61.2519 86.5667 61.171 85.7456 61.3285 84.9535C61.4861 84.1615 61.875 83.4339 62.4461 82.8628C63.0171 82.2917 63.7447 81.9028 64.5368 81.7453C65.3289 81.5877 66.1499 81.6686 66.896 81.9777C67.6422 82.2867 68.2799 82.8101 68.7286 83.4816C69.1773 84.1531 69.4168 84.9426 69.4168 85.7502C69.4168 86.8331 68.9865 87.8717 68.2208 88.6375C67.455 89.4033 66.4164 89.8335 65.3334 89.8335ZM85.7501 69.4168C84.9425 69.4168 84.153 69.1774 83.4815 68.7287C82.81 68.28 82.2866 67.6423 81.9776 66.8961C81.6685 66.15 81.5877 65.329 81.7452 64.5369C81.9028 63.7448 82.2917 63.0172 82.8627 62.4461C83.4338 61.8751 84.1614 61.4862 84.9535 61.3286C85.7456 61.1711 86.5666 61.2519 87.3127 61.561C88.0588 61.87 88.6966 62.3934 89.1453 63.0649C89.5939 63.7364 89.8334 64.5259 89.8334 65.3335C89.8334 66.4165 89.4032 67.4551 88.6374 68.2209C87.8717 68.9866 86.8331 69.4168 85.7501 69.4168Z" fill="black"/>
<path d="M36.7501 78.6045V61.2503H19.3959C18.4971 59.6934 17.1096 58.4766 15.4487 57.7886C13.7877 57.1007 11.9462 56.98 10.2097 57.4453C8.47321 57.9106 6.93876 58.9358 5.84435 60.3621C4.74994 61.7884 4.15674 63.5359 4.15674 65.3337C4.15674 67.1314 4.74994 68.879 5.84435 70.3052C6.93876 71.7315 8.47321 72.7568 10.2097 73.2221C11.9462 73.6874 13.7877 73.5667 15.4487 72.8787C17.1096 72.1907 18.4971 70.9739 19.3959 69.417H28.5834V78.6045C27.0265 79.5034 25.8097 80.8909 25.1218 82.5518C24.4338 84.2127 24.3131 86.0542 24.7784 87.7907C25.2437 89.5272 26.269 91.0617 27.6952 92.1561C29.1215 93.2505 30.869 93.8437 32.6668 93.8437C34.4645 93.8437 36.2121 93.2505 37.6383 92.1561C39.0646 91.0617 40.0899 89.5272 40.5552 87.7907C41.0205 86.0542 40.8998 84.2127 40.2118 82.5518C39.5238 80.8909 38.307 79.5034 36.7501 78.6045ZM12.2501 69.417C11.4425 69.417 10.653 69.1775 9.98153 68.7288C9.31003 68.2802 8.78666 67.6424 8.4776 66.8963C8.16855 66.1502 8.08768 65.3291 8.24524 64.537C8.4028 63.745 8.7917 63.0174 9.36276 62.4463C9.93382 61.8752 10.6614 61.4863 11.4535 61.3288C12.2456 61.1712 13.0666 61.2521 13.8127 61.5612C14.5589 61.8702 15.1966 62.3936 15.6453 63.0651C16.094 63.7366 16.3334 64.5261 16.3334 65.3337C16.3334 66.4166 15.9032 67.4552 15.1375 68.221C14.3717 68.9868 13.3331 69.417 12.2501 69.417ZM32.6668 89.8337C31.8592 89.8337 31.0697 89.5942 30.3982 89.1455C29.7267 88.6968 29.2033 88.0591 28.8943 87.313C28.5852 86.5668 28.5044 85.7458 28.6619 84.9537C28.8195 84.1616 29.2084 83.434 29.7794 82.863C30.3505 82.2919 31.0781 81.903 31.8702 81.7455C32.6623 81.5879 33.4833 81.6688 34.2294 81.9778C34.9755 82.2869 35.6133 82.8102 36.0619 83.4817C36.5106 84.1532 36.7501 84.9427 36.7501 85.7503C36.7501 86.8333 36.3199 87.8719 35.5541 88.6377C34.7884 89.4035 33.7497 89.8337 32.6668 89.8337Z" fill="black"/>
</g>
<defs>
<clipPath id="clip0_111_1186">
<rect width="98" height="98" fill="white"/>
</clipPath>
</defs>
</svg>
